<?xml version="1.0" ?><svg id="svg8" style="enable-background:new 0 0 200 200;" version="1.1" viewBox="0 0 200 200" xml:space="preserve" xmlns="http://www.w3.org/2000/svg" xmlns:cc="http://creativecommons.org/ns#" xmlns:dc="http://purl.org/dc/elements/1.1/" xmlns:inkscape="http://www.inkscape.org/namespaces/inkscape" xmlns:rdf="http://www.w3.org/1999/02/22-rdf-syntax-ns#" xmlns:sodipodi="http://sodipodi.sourceforge.net/DTD/sodipodi-0.dtd" xmlns:svg="http://www.w3.org/2000/svg" xmlns:xlink="http://www.w3.org/1999/xlink"><style type="text/css">
	.st0{fill:#E90A29;}
</style><path class="st0" d="M90.744362,194.74025  c-17.9673-1.995361-33.977268-8.276581-48.215927-18.916687c-5.250969-3.923889-14.564262-13.238739-18.471636-18.474777  c-9.480422-12.70401-15.375759-26.598709-18.097107-42.652969c-1.190093-7.020798-1.290833-20.943771-0.204124-28.217026  c5.719004-38.277699,33.453377-69.178047,70.608917-78.669098c8.883568-2.269242,13.434418-2.809665,23.659004-2.809665  c10.0383,0,14.636169,0.530233,23.197754,2.675272c33.374031,8.361664,59.933647,34.533909,68.762947,67.760094  c2.321045,8.734489,2.989563,14.0858,3.01474,24.133331c0.016525,6.737869-0.160355,10.271439-0.687775,13.715218  c-3.291031,21.485664-12.825195,40.163979-28.036301,54.92585c-14.449188,14.022415-32.243301,22.811371-52.534416,25.948013  c-5.063103,0.782684-18.197548,1.115295-22.996056,0.582443H90.744362z M66.224686,151.49437  c1.235718-0.726318,2.299385-1.789856,3.025803-3.025421l1.120171-1.905396l0.201782-9.681274  c0.182045-8.741516,0.280029-9.814301,1.008591-11.050529c1.326294-2.250397,3.394302-3.644188,6.047592-4.075966  c3.36647-0.547874,44.296951-0.510948,46.375977,0.041634c2.184425,0.58075,4.09185,2.081108,5.061241,3.980972  c0.706833,1.385353,0.807343,2.54641,0.914703,10.565651c0.13414,10.025391,0.294235,10.766174,2.851761,13.200378  c2.173264,2.068451,4.059204,2.385834,13.788467,2.32019c8.236725-0.055664,8.522232-0.085464,10.269806-1.065613  c0.988663-0.554611,2.350281-1.795059,3.025803-2.756409l1.228226-1.74794l0.131989-9.143539  c0.081467-5.646332-0.030884-9.690529-0.294022-10.573647c-0.234222-0.786583-1.064575-2.176102-1.845078-3.087875  c-2.238174-2.614403-3.742035-2.944717-13.408356-2.944717c-6.499084,0-8.523254-0.130341-9.706009-0.624359  c-1.926682-0.804878-3.198242-2.008667-4.213562-3.9888c-0.742538-1.448143-0.808716-2.28727-0.752975-9.545403  c0.068619-8.917152-0.236359-10.821068-2.093323-13.073601c-2.238945-2.715927-3.437721-3.002792-12.600403-3.015396  c-4.63546-0.007172-8.754898-0.201447-9.681221-0.458679c-2.104988-0.584305-4.81469-3.293655-5.399055-5.398369  c-0.262978-0.947166-0.448547-5.153862-0.44986-10.197212c-0.001617-6.832321-0.129631-8.890083-0.626686-10.079247  c-0.797897-1.909397-2.006676-3.196575-3.925659-4.180504c-1.377632-0.706375-2.432152-0.782585-10.961174-0.792336  c-8.598557-0.010792-9.574196,0.059608-10.982353,0.781544c-1.9394,0.994335-3.146515,2.276253-3.946808,4.191296  c-0.53981,1.291779-0.624428,4.738899-0.624428,25.435631c0,26.536797-0.023697,26.815285-2.510429,29.221603  c-2.396072,2.318771-3.446381,2.530632-12.545383,2.530632c-10.443054,0-12.008881,0.477913-14.292847,4.362778l-1.111019,1.889732  l0.004669,9.479652c0.005383,10.459976,0.049335,10.67836,2.679928,13.249908  c2.233578,2.183456,3.892815,2.471466,13.654709,2.370438l8.673939-0.089737L66.224686,151.49437z M132.944458,63.868771  c0.746262-4.394009,1.744324-6.774853,3.667694-8.748734c2.377823-2.440399,5.321182-3.36647,14.648117-4.609051l2.218918-0.295525  l-4.351578-0.500263c-12.20752-1.403435-15.031708-4.088898-16.653992-15.835606  c-0.357162-2.586187-0.697769-4.751333-0.756912-4.811489c-0.059097-0.059938-0.228256,1.190203-0.375961,2.778545  c-0.360306,3.87627-1.332748,8.457214-2.248993,10.594471c-1.007355,2.349781-3.309494,4.501286-5.82177,5.440781  c-2.140381,0.800446-9.231255,2.070087-11.56131,2.070087c-2.306358,0-1.146751,0.309879,3.645477,0.97374  c11.188995,1.550266,14.017342,4.155464,15.550301,14.323524c0.320389,2.125038,0.605042,4.40831,0.632568,5.073921  c0.053619,1.294571,0.224655,0.510017,1.40744-6.454292V63.868771z" id="path38"/></svg>